<svg width="480" height="202" viewBox="0 0 480 202" fill="none" xmlns="http://www.w3.org/2000/svg">
<path d="M0 0H479C479 0 479.331 133.958 479.331 173.941C479.331 178.752 479.331 195.441 479.331 201.441C479.331 201.441 478.831 201.441 470.831 201.441C406.331 201.441 371.988 197.15 269.331 180.941C250.331 177.941 239.677 176.815 230.331 175.941C218.433 174.829 208.415 173.321 177.331 174.441C125.756 175.135 69.8311 177.941 0 200.941V0Z" fill="#6327FE"/>
<path d="M32.9 95.455C34.94 95.695 36.395 96.385 37.265 97.525C38.135 98.635 38.57 99.985 38.57 101.575C38.57 102.565 38.42 103.51 38.12 104.41C37.82 105.28 37.46 106.03 37.04 106.66C36.62 107.26 36.26 107.65 35.96 107.83C34.76 108.61 31.1 109 24.98 109H16.25V83.35H26.825C29.225 83.35 31.16 83.485 32.63 83.755C34.13 83.995 35.345 84.565 36.275 85.465C37.205 86.335 37.67 87.67 37.67 89.47C37.67 91.03 37.28 92.29 36.5 93.25C35.75 94.21 34.55 94.87 32.9 95.23V95.455ZM29.3 88.795C29 88.495 28.64 88.315 28.22 88.255C27.83 88.165 27.2 88.12 26.33 88.12C25.46 88.12 24.8 88.135 24.35 88.165V93.655H24.8C24.95 93.655 25.58 93.655 26.69 93.655C27.8 93.655 28.535 93.58 28.895 93.43C29.165 93.31 29.405 92.995 29.615 92.485C29.855 91.975 29.975 91.42 29.975 90.82C29.975 89.92 29.75 89.245 29.3 88.795ZM30.065 103.825C30.275 103.645 30.44 103.315 30.56 102.835C30.71 102.325 30.785 101.815 30.785 101.305C30.785 100.675 30.695 100.09 30.515 99.55C30.365 98.98 30.155 98.575 29.885 98.335C29.615 98.065 29.225 97.885 28.715 97.795C28.235 97.705 27.41 97.66 26.24 97.66C25.49 97.66 24.86 97.675 24.35 97.705V104.23C25.76 104.26 27.02 104.245 28.13 104.185C29.24 104.095 29.885 103.975 30.065 103.825ZM49.338 90.28C49.338 90.91 49.653 91.405 50.283 91.765C50.943 92.125 51.963 92.515 53.343 92.935C54.993 93.475 56.343 94 57.393 94.51C58.473 95.02 59.403 95.815 60.183 96.895C60.993 97.975 61.398 99.385 61.398 101.125C61.398 106.705 57.768 109.495 50.508 109.495C49.308 109.495 47.838 109.39 46.098 109.18C44.388 108.97 42.828 108.7 41.418 108.37C41.478 107.74 41.598 106.825 41.778 105.625C41.988 104.395 42.183 103.48 42.363 102.88C43.413 103.03 44.988 103.21 47.088 103.42C49.218 103.63 50.823 103.735 51.903 103.735C52.533 103.735 52.908 103.69 53.028 103.6C53.208 103.48 53.343 103.285 53.433 103.015C53.553 102.715 53.613 102.46 53.613 102.25C53.613 101.65 53.328 101.2 52.758 100.9C52.188 100.57 51.213 100.18 49.833 99.73C48.183 99.22 46.818 98.695 45.738 98.155C44.658 97.615 43.713 96.775 42.903 95.635C42.093 94.495 41.688 92.995 41.688 91.135C41.688 89.815 41.988 88.525 42.588 87.265C43.188 85.975 43.803 85.105 44.433 84.655C44.913 84.325 45.903 84.01 47.403 83.71C48.903 83.41 50.313 83.26 51.633 83.26C54.993 83.26 57.738 83.575 59.868 84.205C59.838 84.805 59.733 85.63 59.553 86.68C59.403 87.73 59.238 88.69 59.058 89.56L58.023 89.515C54.123 89.245 51.633 89.11 50.553 89.11C50.103 89.11 49.848 89.125 49.788 89.155C49.668 89.215 49.563 89.35 49.473 89.56C49.383 89.77 49.338 90.01 49.338 90.28ZM72.4972 90.28C72.4972 90.91 72.8122 91.405 73.4422 91.765C74.1022 92.125 75.1222 92.515 76.5022 92.935C78.1522 93.475 79.5022 94 80.5522 94.51C81.6322 95.02 82.5622 95.815 83.3422 96.895C84.1522 97.975 84.5572 99.385 84.5572 101.125C84.5572 106.705 80.9272 109.495 73.6672 109.495C72.4672 109.495 70.9972 109.39 69.2572 109.18C67.5472 108.97 65.9872 108.7 64.5772 108.37C64.6372 107.74 64.7572 106.825 64.9372 105.625C65.1472 104.395 65.3422 103.48 65.5222 102.88C66.5722 103.03 68.1472 103.21 70.2472 103.42C72.3772 103.63 73.9822 103.735 75.0622 103.735C75.6922 103.735 76.0672 103.69 76.1872 103.6C76.3672 103.48 76.5022 103.285 76.5922 103.015C76.7122 102.715 76.7722 102.46 76.7722 102.25C76.7722 101.65 76.4872 101.2 75.9172 100.9C75.3472 100.57 74.3722 100.18 72.9922 99.73C71.3422 99.22 69.9772 98.695 68.8972 98.155C67.8172 97.615 66.8722 96.775 66.0622 95.635C65.2522 94.495 64.8472 92.995 64.8472 91.135C64.8472 89.815 65.1472 88.525 65.7472 87.265C66.3472 85.975 66.9622 85.105 67.5922 84.655C68.0722 84.325 69.0622 84.01 70.5622 83.71C72.0622 83.41 73.4722 83.26 74.7922 83.26C78.1522 83.26 80.8972 83.575 83.0272 84.205C82.9972 84.805 82.8922 85.63 82.7122 86.68C82.5622 87.73 82.3972 88.69 82.2172 89.56L81.1822 89.515C77.2822 89.245 74.7922 89.11 73.7122 89.11C73.2622 89.11 73.0072 89.125 72.9472 89.155C72.8272 89.215 72.7222 89.35 72.6322 89.56C72.5422 89.77 72.4972 90.01 72.4972 90.28ZM121.351 109H113.791L113.206 94.87C113.116 92.08 113.011 89.965 112.891 88.525H112.756C112.396 89.665 111.976 91.435 111.496 93.835L111.271 94.96L108.166 109H100.606L97.9964 96.355L97.5464 94.105C96.9164 91.315 96.4814 89.455 96.2414 88.525H96.1064C95.9864 90.025 95.8814 92.47 95.7914 95.86C95.7614 96.07 95.7464 96.4 95.7464 96.85L95.3414 109H87.7364L88.8164 83.35H101.686L103.891 94.42L104.431 97.39C104.671 96.46 104.896 95.425 105.106 94.285L107.176 83.35H120.316L121.351 109ZM124.602 94.195H138.102V100.63H124.602V94.195ZM156.74 83.35H165.29L158.36 109H146.615L139.64 83.35H148.235L152.375 103.42H152.6L156.74 83.35ZM179.704 103.6C180.454 103.6 181.849 103.525 183.889 103.375C184.159 103.375 184.654 103.345 185.374 103.285L186.049 107.92C183.739 109 180.739 109.54 177.049 109.54C173.599 109.54 170.944 108.67 169.084 106.93C167.254 105.19 166.339 102.565 166.339 99.055C166.339 97.255 166.564 95.515 167.014 93.835C167.494 92.155 168.034 90.985 168.634 90.325C169.264 89.665 170.434 89.095 172.144 88.615C173.854 88.135 175.549 87.895 177.229 87.895C179.929 87.895 181.954 88.375 183.304 89.335C184.654 90.295 185.539 91.63 185.959 93.34C186.379 95.02 186.589 97.285 186.589 100.135C184.549 100.255 182.554 100.315 180.604 100.315H174.214C174.214 101.275 174.409 101.995 174.799 102.475C175.219 102.955 175.804 103.27 176.554 103.42C177.304 103.54 178.354 103.6 179.704 103.6ZM174.664 93.25C174.484 93.34 174.349 93.73 174.259 94.42C174.169 95.11 174.109 95.89 174.079 96.76H176.419C177.829 96.76 178.849 96.745 179.479 96.715C179.479 95.275 179.269 94.255 178.849 93.655C178.459 93.055 177.769 92.755 176.779 92.755C175.969 92.755 175.264 92.92 174.664 93.25ZM209.322 89.605C209.592 89.935 209.787 90.76 209.907 92.08C210.057 93.4 210.132 95.41 210.132 98.11V109H202.437V98.2V96.355C202.437 95.395 202.362 94.795 202.212 94.555C201.972 94.255 201.417 94.105 200.547 94.105C200.127 94.105 199.812 94.12 199.602 94.15C198.762 94.18 197.892 94.375 196.992 94.735V109H189.297V88.3H195.552L196.407 91.765C198.567 89.155 201.147 87.85 204.147 87.85C205.227 87.85 206.232 88 207.162 88.3C208.122 88.6 208.842 89.035 209.322 89.605ZM234.297 81.685V109H227.952L227.322 105.535C226.722 106.705 225.837 107.635 224.667 108.325C223.497 109.015 222.177 109.36 220.707 109.36C218.367 109.36 216.492 108.52 215.082 106.84C213.702 105.16 213.012 102.64 213.012 99.28C213.012 96.73 213.312 94.63 213.912 92.98C214.512 91.33 215.217 90.145 216.027 89.425C216.537 88.975 217.572 88.6 219.132 88.3C220.722 88 222.132 87.85 223.362 87.85C224.442 87.85 225.552 87.955 226.692 88.165C226.602 86.725 226.557 85.93 226.557 85.78V82L234.297 81.685ZM224.082 103.33C224.892 103.33 225.732 103.195 226.602 102.925V93.16C225.732 93.04 224.772 92.98 223.722 92.98C222.822 92.98 222.252 93.055 222.012 93.205C221.682 93.445 221.412 94.135 221.202 95.275C221.022 96.385 220.932 97.555 220.932 98.785C220.932 100.615 221.202 101.83 221.742 102.43C222.312 103.03 223.092 103.33 224.082 103.33ZM241.994 85.735C240.974 85.735 240.089 85.39 239.339 84.7C238.619 84.01 238.259 83.185 238.259 82.225C238.259 81.265 238.619 80.44 239.339 79.75C240.089 79.06 240.974 78.715 241.994 78.715C243.014 78.715 243.884 79.06 244.604 79.75C245.324 80.44 245.684 81.265 245.684 82.225C245.684 83.185 245.324 84.01 244.604 84.7C243.884 85.39 243.014 85.735 241.994 85.735ZM238.124 88.3H245.819V109H238.124V88.3ZM269.659 89.605C269.929 89.935 270.124 90.76 270.244 92.08C270.394 93.4 270.469 95.41 270.469 98.11V109H262.774V98.2V96.355C262.774 95.395 262.699 94.795 262.549 94.555C262.309 94.255 261.754 94.105 260.884 94.105C260.464 94.105 260.149 94.12 259.939 94.15C259.099 94.18 258.229 94.375 257.329 94.735V109H249.634V88.3H255.889L256.744 91.765C258.904 89.155 261.484 87.85 264.484 87.85C265.564 87.85 266.569 88 267.499 88.3C268.459 88.6 269.179 89.035 269.659 89.605ZM284.824 87.94C286.234 87.94 287.704 88.045 289.234 88.255C290.764 88.435 292.549 88.69 294.589 89.02V106.93C294.589 111.22 293.164 114.55 290.314 116.92C289.954 117.22 289.144 117.475 287.884 117.685C286.624 117.895 285.199 118 283.609 118C280.159 118 277.429 117.55 275.419 116.65C275.389 115.99 275.434 115.12 275.554 114.04C275.704 112.96 275.854 112.105 276.004 111.475C278.164 111.805 280.279 111.97 282.349 111.97C283.399 111.97 284.284 111.91 285.004 111.79C285.754 111.7 286.219 111.55 286.399 111.34C286.639 111.1 286.819 110.2 286.939 108.64C286.969 108.22 286.984 107.605 286.984 106.795V105.67C286.234 106.78 285.274 107.575 284.104 108.055C282.934 108.535 281.884 108.775 280.954 108.775C278.434 108.775 276.529 107.95 275.239 106.3C273.949 104.65 273.304 102.235 273.304 99.055C273.304 96.955 273.589 94.99 274.159 93.16C274.759 91.3 275.569 90.01 276.589 89.29C277.249 88.84 278.314 88.51 279.784 88.3C281.284 88.06 282.964 87.94 284.824 87.94ZM283.879 103.15C284.989 103.15 285.994 102.97 286.894 102.61V93.205C286.564 93.145 286.069 93.085 285.409 93.025C285.109 92.995 284.659 92.98 284.059 92.98C283.129 92.98 282.544 93.07 282.304 93.25C281.974 93.49 281.704 94.165 281.494 95.275C281.314 96.355 281.224 97.495 281.224 98.695C281.224 100.345 281.404 101.5 281.764 102.16C282.154 102.82 282.859 103.15 283.879 103.15ZM338.485 109H330.925L330.34 94.87C330.25 92.08 330.145 89.965 330.025 88.525H329.89C329.53 89.665 329.11 91.435 328.63 93.835L328.405 94.96L325.3 109H317.74L315.13 96.355L314.68 94.105C314.05 91.315 313.615 89.455 313.375 88.525H313.24C313.12 90.025 313.015 92.47 312.925 95.86C312.895 96.07 312.88 96.4 312.88 96.85L312.475 109H304.87L305.95 83.35H318.82L321.025 94.42L321.565 97.39C321.805 96.46 322.03 95.425 322.24 94.285L324.31 83.35H337.45L338.485 109ZM354.381 109L353.661 106.165C352.281 108.415 350.361 109.54 347.901 109.54C345.891 109.54 344.241 108.985 342.951 107.875C341.691 106.735 341.061 105.145 341.061 103.105C341.061 101.845 341.421 100.75 342.141 99.82C342.891 98.86 343.911 98.185 345.201 97.795C346.881 97.315 349.476 97.045 352.986 96.985C352.986 95.005 352.896 93.955 352.716 93.835C352.566 93.715 352.086 93.655 351.276 93.655C350.766 93.655 350.061 93.685 349.161 93.745C347.721 93.805 345.771 93.97 343.311 94.24C343.071 92.62 342.891 90.88 342.771 89.02C344.361 88.69 346.026 88.42 347.766 88.21C349.506 87.97 351.066 87.85 352.446 87.85C354.846 87.85 356.646 88.255 357.846 89.065C359.046 89.845 359.826 90.88 360.186 92.17C360.546 93.46 360.711 95.095 360.681 97.075L360.636 103.69L360.771 109H354.381ZM350.511 104.5C351.291 104.5 352.116 104.35 352.986 104.05V100.72H352.626C350.406 100.72 349.176 100.84 348.936 101.08C348.786 101.23 348.666 101.455 348.576 101.755C348.516 102.055 348.486 102.34 348.486 102.61C348.486 103.33 348.651 103.825 348.981 104.095C349.311 104.365 349.821 104.5 350.511 104.5ZM381.571 108.37C379.141 109.18 376.426 109.585 373.426 109.585C370.066 109.585 367.546 108.745 365.866 107.065C364.216 105.355 363.391 102.7 363.391 99.1C363.391 97.33 363.631 95.59 364.111 93.88C364.591 92.14 365.101 90.97 365.641 90.37C366.271 89.68 367.501 89.095 369.331 88.615C371.191 88.135 373.111 87.895 375.091 87.895C377.161 87.895 379.246 88.075 381.346 88.435C381.286 89.185 381.181 90.07 381.031 91.09C380.911 92.08 380.776 92.965 380.626 93.745C378.766 93.625 377.011 93.565 375.361 93.565C373.741 93.565 372.706 93.655 372.256 93.835C372.016 93.925 371.791 94.54 371.581 95.68C371.401 96.82 371.311 97.885 371.311 98.875C371.311 100.195 371.491 101.215 371.851 101.935C372.241 102.625 372.841 103.105 373.651 103.375C374.461 103.645 375.556 103.78 376.936 103.78C377.536 103.78 378.856 103.72 380.896 103.6L381.571 108.37ZM404.176 89.605C404.446 89.935 404.641 90.76 404.761 92.08C404.911 93.4 404.986 95.41 404.986 98.11V109H397.291V98.2C397.291 98.08 397.291 97.495 397.291 96.445C397.291 95.365 397.216 94.705 397.066 94.465C396.976 94.345 396.751 94.255 396.391 94.195C396.061 94.135 395.671 94.105 395.221 94.105L394.456 94.15C393.616 94.18 392.746 94.375 391.846 94.735V109H384.151V82L391.846 81.685V86.95C391.846 89.11 391.771 90.55 391.621 91.27L391.666 91.315C393.706 89.005 396.151 87.85 399.001 87.85C400.081 87.85 401.086 88 402.016 88.3C402.976 88.6 403.696 89.035 404.176 89.605ZM412.545 85.735C411.525 85.735 410.64 85.39 409.89 84.7C409.17 84.01 408.81 83.185 408.81 82.225C408.81 81.265 409.17 80.44 409.89 79.75C410.64 79.06 411.525 78.715 412.545 78.715C413.565 78.715 414.435 79.06 415.155 79.75C415.875 80.44 416.235 81.265 416.235 82.225C416.235 83.185 415.875 84.01 415.155 84.7C414.435 85.39 413.565 85.735 412.545 85.735ZM408.675 88.3H416.37V109H408.675V88.3ZM440.211 89.605C440.481 89.935 440.676 90.76 440.796 92.08C440.946 93.4 441.021 95.41 441.021 98.11V109H433.326V98.2V96.355C433.326 95.395 433.251 94.795 433.101 94.555C432.861 94.255 432.306 94.105 431.436 94.105C431.016 94.105 430.701 94.12 430.491 94.15C429.651 94.18 428.781 94.375 427.881 94.735V109H420.186V88.3H426.441L427.296 91.765C429.456 89.155 432.036 87.85 435.036 87.85C436.116 87.85 437.121 88 438.051 88.3C439.011 88.6 439.731 89.035 440.211 89.605ZM457.13 103.6C457.88 103.6 459.275 103.525 461.315 103.375C461.585 103.375 462.08 103.345 462.8 103.285L463.475 107.92C461.165 109 458.165 109.54 454.475 109.54C451.025 109.54 448.37 108.67 446.51 106.93C444.68 105.19 443.765 102.565 443.765 99.055C443.765 97.255 443.99 95.515 444.44 93.835C444.92 92.155 445.46 90.985 446.06 90.325C446.69 89.665 447.86 89.095 449.57 88.615C451.28 88.135 452.975 87.895 454.655 87.895C457.355 87.895 459.38 88.375 460.73 89.335C462.08 90.295 462.965 91.63 463.385 93.34C463.805 95.02 464.015 97.285 464.015 100.135C461.975 100.255 459.98 100.315 458.03 100.315H451.64C451.64 101.275 451.835 101.995 452.225 102.475C452.645 102.955 453.23 103.27 453.98 103.42C454.73 103.54 455.78 103.6 457.13 103.6ZM452.09 93.25C451.91 93.34 451.775 93.73 451.685 94.42C451.595 95.11 451.535 95.89 451.505 96.76H453.845C455.255 96.76 456.275 96.745 456.905 96.715C456.905 95.275 456.695 94.255 456.275 93.655C455.885 93.055 455.195 92.755 454.205 92.755C453.395 92.755 452.69 92.92 452.09 93.25Z" fill="white"/>
</svg>
